<?xml version="1.0" encoding="utf-8"?>
<!-- Generator: Adobe Illustrator 18.0.0, SVG Export Plug-In . SVG Version: 6.00 Build 0)  -->
<!DOCTYPE svg PUBLIC "-//W3C//DTD SVG 1.1//EN" "http://www.w3.org/Graphics/SVG/1.1/DTD/svg11.dtd">
<svg version="1.1" id="图层_1" xmlns="http://www.w3.org/2000/svg" xmlns:xlink="http://www.w3.org/1999/xlink" x="0px" y="0px"
	 viewBox="0 0 155 58" enable-background="new 0 0 155 58" xml:space="preserve">
<g>
	<g>
		<path fill="#388AD5" d="M25.6,25.7c0.4-1.4,1-2.8,1.8-4.1c2.6-4.1,7-6.6,11.9-6.6c0.7,0,1.4,0.1,2,0.1c0.2-0.3,0.4-0.7,0.7-1
			c-2.5-2.6-6.1-4.2-10-4.2c-5.4,0-10.1,3.1-12.4,7.6l0,0.1c-3.2-1.1-6.8,0.2-8.7,3.1c-0.7,1.1-1,2.2-1.1,3.4v0
			c-4.1,0.3-7.3,3.7-7.3,7.8c0,4.3,3.5,7.9,7.9,7.9h4.1C14.5,33.1,19.2,27.3,25.6,25.7z"/>
		<g>
			<path fill="#388AD5" d="M68,32.8c-1.2,0-2.2,1-2.2,2.2c0,1.2,1,2.2,2.2,2.2c1.2,0,2.2-1,2.2-2.2C70.2,33.8,69.3,32.8,68,32.8z"/>
			<path fill="#388AD5" d="M81.7,29.2L81.7,29.2c0-0.5,0-1,0-1.4c0-11.4-9.2-20.6-20.6-20.6c-8,0-14.9,4.6-18.3,11.2l0,0.1
				c-4.8-1.6-10.1,0.2-12.9,4.7c-1,1.6-1.5,3.3-1.7,5.1v0c-6,0.5-10.8,5.5-10.8,11.7c0,6.5,5.2,11.7,11.7,11.7h39.6h12.7
				c6.2,0,11.2-5,11.2-11.2C92.5,34.4,87.7,29.4,81.7,29.2z M68,41.3c-2.6,0-4.8-1.5-5.8-3.7L58.9,41h0l-3,2.9l-6-6.1l-4.8,4.8
				L43.8,44l-9-9l3-2.9l6.1,6l3.1-3.1l2.9-2.9l6.1,6l7.6-7.6c1.2-1.1,2.7-1.9,4.5-1.9c3.5,0,6.4,2.8,6.4,6.4
				C74.4,38.5,71.6,41.3,68,41.3z"/>
		</g>
	</g>
</g>
<g>
	<rect x="98.6" y="11.5" fill="#388AD5" width="3.9" height="4.9"/>
	<path fill="#388AD5" d="M143.3,23.5c3.2,5.1,6.5,12.6,6.5,12.6l3.7-2.3C153.5,33.8,149.2,26.7,143.3,23.5z"/>
	<polygon fill="#388AD5" points="102.4,18.4 98.6,18.4 98.6,23.3 102.4,23.3 	"/>
	<path fill="#388AD5" d="M102.4,25.3l-3.9,0l0,10.3c0,0,3.8-1,3.9-5.3L102.4,25.3z"/>
	<path fill="#388AD5" d="M115.9,22.7c0-0.1,0-0.2,0-0.2l8.8,0v-3.4l-8.8,0v-4.3l4.2,0c4,0,5.5-3.4,5.5-3.4h-20.1l0,3.4l6.5,0l0,4.3
		l-7,0l0,3.3l7,0c0,2.7-3.8,9.5-10.5,13.4c0,0,6.5-0.5,10.9-5.3c1.4-1.5,2.3-3.6,2.8-5.3c0.3,1.6,0.8,3.4,2,5.1
		c2.3,3.4,5.5,5.6,5.5,5.6l3.1-2.8C123.4,32.4,117.9,27.4,115.9,22.7z"/>
	<g>
		<path fill="#388AD5" d="M127.5,22.5v-3.2h26v3.2H127.5z M128.8,11.5h23.5c0,0-1.3,3.4-6.9,3.4c-4,0-16.6,0-16.6,0L128.8,11.5
			L128.8,11.5z"/>
	</g>
	<g>
		<path fill="#388AD5" d="M139.9,22c-1.1,1.6-6,9.5-6,9.5l14.3-0.8l0.8,3.2l-20.4,1v-2.9c2.4-1.8,5.3-7.4,7.2-10.1L139.9,22z"/>
	</g>
	<polygon fill="#388AD5" points="108.5,40.8 106.2,47.8 104,40.8 104,40.8 104,40.8 103,40.8 100.8,47.8 98.6,40.8 97,40.8 
		100,50.3 100,50.4 101,50.4 103.2,43.3 105.4,50.3 105.4,50.4 106.4,50.4 109.4,40.8 	"/>
	<path fill="#388AD5" d="M112.3,43.4c-1.7,0-3.1,1.4-3.1,3.1v1c0,1.7,1.4,3.1,3.1,3.1c1.7,0,3.1-1.4,3.1-3.1v-1
		C115.5,44.8,114.1,43.4,112.3,43.4z M113.6,49c-0.3,0.5-0.7,0.8-1.2,0.8c-0.3,0-0.6-0.1-0.8-0.2c-0.2-0.2-0.4-0.4-0.5-0.6
		c-0.1-0.3-0.2-0.6-0.3-0.9c-0.1-0.3-0.1-0.7-0.1-1.1c0-0.3,0-0.6,0.1-0.9c0.1-0.3,0.1-0.6,0.3-0.9c0.1-0.3,0.3-0.5,0.6-0.7
		c0.2-0.2,0.5-0.2,0.8-0.2c0.3,0,0.6,0.1,0.8,0.2c0.2,0.2,0.4,0.4,0.5,0.6c0.1,0.2,0.2,0.5,0.3,0.9c0.1,0.3,0.1,0.7,0.1,1
		C114.1,47.8,113.9,48.5,113.6,49z"/>
	<path fill="#388AD5" d="M135.1,43.4c-1.7,0-3.1,1.4-3.1,3.1v1c0,1.7,1.4,3.1,3.1,3.1c1.7,0,3.1-1.4,3.1-3.1v-1
		C138.3,44.8,136.9,43.4,135.1,43.4z M136.4,49c-0.3,0.5-0.7,0.8-1.2,0.8c-0.3,0-0.6-0.1-0.8-0.2c-0.2-0.2-0.4-0.4-0.5-0.6
		c-0.1-0.3-0.2-0.6-0.3-0.9c-0.1-0.3-0.1-0.7-0.1-1.1c0-0.3,0-0.6,0.1-0.9c0.1-0.3,0.1-0.6,0.3-0.9c0.1-0.3,0.3-0.5,0.6-0.7
		c0.2-0.2,0.5-0.2,0.8-0.2c0.3,0,0.6,0.1,0.8,0.2c0.2,0.2,0.4,0.4,0.5,0.6c0.1,0.2,0.2,0.5,0.3,0.9c0.1,0.3,0.1,0.7,0.1,1
		C136.8,47.8,136.7,48.5,136.4,49z"/>
	<path fill="#388AD5" d="M126.1,46.9c-0.1,0.6-0.3,1.1-0.6,1.6c-0.5,0.8-1.2,1.1-2,1.1c-0.5,0-1-0.1-1.3-0.3
		c-0.4-0.2-0.6-0.5-0.9-0.9c-0.2-0.4-0.4-0.9-0.5-1.4c-0.1-0.5-0.2-1.1-0.2-1.7c0-0.5,0-0.9,0.1-1.4c0.1-0.5,0.2-0.9,0.5-1.3
		c0.2-0.4,0.5-0.7,0.9-1c0.4-0.2,0.8-0.4,1.4-0.4c0.5,0,0.9,0.1,1.3,0.4c0.4,0.2,0.6,0.5,0.9,0.9c0.2,0.4,0.4,0.8,0.5,1.3
		c0,0.2,0.1,0.4,0.1,0.6h1.7c-0.2-2.3-2.1-4.1-4.5-4.1c-2.5,0-4.5,2-4.5,4.5v1.4c0,2.5,2,4.5,4.5,4.5c2.3,0,4.1-1.6,4.4-3.8
		L126.1,46.9L126.1,46.9z"/>
	<path fill="#388AD5" d="M144.5,43.4c0,0,0,3.4,0,3.5c0,0.9-0.2,1.6-0.5,2.1c-0.3,0.5-0.7,0.8-1.2,0.8c-0.3,0-0.6-0.1-0.8-0.2
		c-0.2-0.2-0.4-0.4-0.5-0.6c-0.1-0.3-0.2-0.6-0.3-0.9c-0.1-0.3-0.1-0.7-0.1-1.1c0,0,0-3.4,0-3.4h-1.4v4.1c0,1.7,1.4,3.1,3.1,3.1
		c1.7,0,3.1-1.4,3.1-3.1v-4.1L144.5,43.4L144.5,43.4z"/>
	<path fill="#388AD5" d="M130.8,50.6c0-2.9,0-10,0-10h-1.4v10H130.8z"/>
	<path fill="#388AD5" d="M153.3,46.2c0-2.1,0-5.5,0-5.5h-1.4v3.3c-0.5-0.3-1.1-0.5-1.7-0.5c-1.7,0-3.1,1.4-3.1,3.1v1
		c0,1.7,1.4,3.1,3.1,3.1c1.7,0,3.1-1.4,3.1-3.1v-1C153.4,46.4,153.4,46.3,153.3,46.2z M151.5,49c-0.3,0.5-0.7,0.8-1.2,0.8
		c-0.3,0-0.6-0.1-0.8-0.2c-0.2-0.2-0.4-0.4-0.5-0.6c-0.1-0.3-0.2-0.6-0.3-0.9c-0.1-0.3-0.1-0.7-0.1-1.1c0-0.3,0-0.6,0.1-0.9
		c0.1-0.3,0.1-0.6,0.3-0.9c0.1-0.3,0.3-0.5,0.6-0.7c0.2-0.2,0.5-0.2,0.8-0.2c0.3,0,0.6,0.1,0.8,0.2c0.2,0.2,0.4,0.4,0.5,0.6
		c0.1,0.2,0.2,0.5,0.3,0.9s0.1,0.7,0.1,1C152,47.8,151.8,48.5,151.5,49z"/>
</g>
</svg>
