<?xml version="1.0" encoding="utf-8"?>
<!-- Generator: Adobe Illustrator 16.0.0, SVG Export Plug-In . SVG Version: 6.00 Build 0)  -->
<!DOCTYPE svg PUBLIC "-//W3C//DTD SVG 1.1//EN" "http://www.w3.org/Graphics/SVG/1.1/DTD/svg11.dtd">
<svg version="1.1" id="图层_1" xmlns="http://www.w3.org/2000/svg" xmlns:xlink="http://www.w3.org/1999/xlink" x="0px" y="0px"
	 width="155px" height="58px" viewBox="0 0 155 58" enable-background="new 0 0 155 58" xml:space="preserve">
<g>
	<g>
		<path fill="#FFFFFF" d="M25.591,25.728c0.362-1.448,0.958-2.845,1.76-4.116c2.591-4.109,7.046-6.567,11.916-6.567
			c0.679,0,1.352,0.05,2.02,0.148c0.214-0.339,0.441-0.665,0.671-0.99c-2.521-2.615-6.058-4.248-9.977-4.248
			c-5.389,0-10.058,3.075-12.354,7.563l-0.024,0.053c-3.205-1.052-6.833,0.152-8.713,3.135c-0.671,1.066-1.045,2.237-1.138,3.41
			v0.024c-4.062,0.313-7.258,3.706-7.258,7.848c0,4.346,3.524,7.874,7.873,7.874h4.074C14.463,33.098,19.194,27.289,25.591,25.728z"
			/>
		<g>
			<path fill="#FFFFFF" d="M68.042,32.77c-1.215,0-2.201,0.987-2.201,2.196c0,1.217,0.986,2.197,2.201,2.197
				c1.211,0,2.196-0.98,2.196-2.197C70.239,33.757,69.253,32.77,68.042,32.77z"/>
			<path fill="#FFFFFF" d="M81.671,29.234l-0.004-0.075c0.028-0.454,0.045-0.913,0.045-1.369c0-11.371-9.218-20.59-20.59-20.59
				c-7.998,0-14.933,4.564-18.34,11.229l-0.037,0.077c-4.76-1.56-10.145,0.228-12.938,4.655c-0.997,1.583-1.549,3.321-1.691,5.064
				v0.033c-6.026,0.469-10.774,5.507-10.774,11.658c0,6.453,5.234,11.687,11.691,11.687h39.575h12.653
				c6.182,0,11.19-5.012,11.19-11.191C92.451,34.371,87.663,29.447,81.671,29.234z M68.042,41.338c-2.567,0-4.765-1.52-5.778-3.699
				l-3.384,3.385h0.002l-2.95,2.948l-6.05-6.052l-4.807,4.799l-1.25,1.253l-9.008-9.006l2.953-2.949l6.056,6.05l3.102-3.101
				l2.949-2.949l6.055,6.05l7.602-7.604c1.151-1.148,2.744-1.863,4.508-1.863c3.518,0,6.368,2.846,6.368,6.367
				C74.41,38.485,71.56,41.338,68.042,41.338z"/>
		</g>
	</g>
</g>
<g>
	<rect x="98.566" y="11.516" fill="#FFFFFF" width="3.856" height="4.924"/>
	<path fill="#FFFFFF" d="M143.306,23.484c3.222,5.055,6.545,12.585,6.545,12.585l3.684-2.274
		C153.534,33.795,149.244,26.728,143.306,23.484z"/>
	<polygon fill="#FFFFFF" points="102.418,18.417 98.576,18.405 98.576,23.324 102.424,23.324 	"/>
	<path fill="#FFFFFF" d="M102.418,25.296l-3.852,0.009l0.008,10.288c0,0,3.844-1.009,3.852-5.323L102.418,25.296z"/>
	<path fill="#FFFFFF" d="M115.916,22.724c0.015-0.103,0.021-0.184,0.021-0.184l8.834,0.011v-3.363l-8.828,0.009v-4.33l4.196,0.017
		c3.994-0.004,5.547-3.368,5.547-3.368h-20.083l-0.002,3.363l6.493-0.003l-0.005,4.307l-6.984,0.008l-0.003,3.345l6.995,0.01
		c-0.008,2.665-3.809,9.458-10.501,13.364c0,0,6.478-0.526,10.915-5.267c1.443-1.547,2.311-3.617,2.805-5.275
		c0.271,1.577,0.847,3.382,1.988,5.111c2.258,3.443,5.47,5.591,5.47,5.591l3.137-2.787C123.397,32.39,117.937,27.389,115.916,22.724
		z"/>
	<g>
		<path fill="#FFFFFF" d="M127.53,22.487v-3.24h25.955v3.24H127.53z M128.773,11.516h23.469c0,0-1.266,3.368-6.856,3.368
			c-3.996,0-16.612,0-16.612,0V11.516z"/>
	</g>
	<g>
		<path fill="#FFFFFF" d="M139.94,21.973c-1.146,1.553-6.034,9.458-6.034,9.458l14.298-0.763l0.783,3.178l-20.432,1.045v-2.947
			c2.363-1.809,5.333-7.412,7.204-10.11L139.94,21.973z"/>
	</g>
	<polygon fill="#FFFFFF" points="108.471,40.805 106.245,47.8 104.018,40.805 104.014,40.811 104.016,40.805 103.038,40.805 
		100.819,47.767 98.601,40.805 96.981,40.805 100.01,50.31 99.992,50.358 100.968,50.358 103.206,43.344 105.437,50.338 
		105.429,50.358 106.404,50.358 109.45,40.805 	"/>
	<path fill="#FFFFFF" d="M112.318,43.427c-1.731,0-3.14,1.407-3.14,3.141v0.951c0,1.733,1.408,3.138,3.14,3.138
		c1.734,0,3.142-1.404,3.142-3.138v-0.951C115.46,44.834,114.053,43.427,112.318,43.427z M113.635,48.997
		c-0.304,0.504-0.719,0.759-1.242,0.759c-0.317,0-0.583-0.075-0.799-0.229c-0.216-0.151-0.396-0.36-0.538-0.631
		c-0.141-0.266-0.246-0.569-0.309-0.912c-0.066-0.336-0.099-0.709-0.099-1.111c0-0.303,0.025-0.619,0.081-0.944
		c0.055-0.326,0.149-0.615,0.283-0.869c0.142-0.278,0.328-0.495,0.557-0.653c0.229-0.16,0.501-0.239,0.823-0.239
		c0.314,0,0.579,0.077,0.799,0.235c0.218,0.159,0.393,0.365,0.527,0.626c0.123,0.242,0.219,0.537,0.282,0.885
		c0.063,0.348,0.096,0.682,0.096,0.994C114.097,47.795,113.94,48.494,113.635,48.997z"/>
	<path fill="#FFFFFF" d="M135.117,43.427c-1.732,0-3.14,1.407-3.14,3.141v0.951c0,1.733,1.407,3.138,3.14,3.138
		c1.735,0,3.142-1.404,3.142-3.138v-0.951C138.259,44.834,136.853,43.427,135.117,43.427z M136.382,48.997
		c-0.305,0.504-0.719,0.759-1.243,0.759c-0.318,0-0.582-0.075-0.798-0.229c-0.217-0.151-0.395-0.36-0.539-0.631
		c-0.141-0.266-0.245-0.569-0.31-0.912c-0.064-0.336-0.096-0.709-0.096-1.111c0-0.303,0.026-0.619,0.08-0.944
		c0.056-0.326,0.15-0.615,0.283-0.869c0.142-0.278,0.327-0.495,0.555-0.653c0.229-0.16,0.504-0.239,0.824-0.239
		c0.316,0,0.581,0.077,0.799,0.235c0.216,0.159,0.395,0.365,0.526,0.626c0.127,0.242,0.223,0.537,0.283,0.885
		c0.062,0.348,0.096,0.682,0.096,0.994C136.843,47.795,136.689,48.494,136.382,48.997z"/>
	<path fill="#FFFFFF" d="M126.091,46.852c-0.122,0.61-0.315,1.14-0.598,1.564c-0.5,0.763-1.18,1.142-2.036,1.142
		c-0.521,0-0.959-0.114-1.313-0.345c-0.353-0.228-0.646-0.546-0.877-0.946c-0.233-0.401-0.404-0.86-0.511-1.371
		c-0.105-0.513-0.158-1.071-0.158-1.672c0-0.461,0.044-0.935,0.132-1.426c0.089-0.489,0.244-0.924,0.465-1.31
		c0.232-0.414,0.536-0.74,0.91-0.98c0.373-0.238,0.824-0.358,1.353-0.358c0.516,0,0.95,0.116,1.306,0.353
		c0.359,0.236,0.646,0.548,0.864,0.938c0.207,0.363,0.36,0.812,0.464,1.335c0.039,0.193,0.063,0.379,0.087,0.566h1.726
		c-0.223-2.277-2.144-4.057-4.483-4.057c-2.487,0-4.506,2.015-4.506,4.503v1.362c0,2.49,2.019,4.506,4.506,4.506
		c2.252,0,4.11-1.648,4.448-3.805H126.091z"/>
	<path fill="#FFFFFF" d="M144.452,43.446c0,0.021,0.001,3.435,0.001,3.46c0,0.889-0.154,1.588-0.459,2.091
		c-0.306,0.504-0.721,0.759-1.243,0.759c-0.319,0-0.586-0.075-0.801-0.229c-0.216-0.151-0.396-0.36-0.535-0.631
		c-0.144-0.266-0.248-0.569-0.311-0.912c-0.067-0.336-0.099-0.709-0.099-1.111c0-0.01,0.003-3.415,0.003-3.426h-1.42v4.072
		c0,1.733,1.406,3.138,3.143,3.138c1.731,0,3.138-1.404,3.138-3.138v-4.072H144.452z"/>
	<path fill="#FFFFFF" d="M130.752,50.553c0-2.92,0-9.951,0-9.951h-1.384v9.951H130.752z"/>
	<path fill="#FFFFFF" d="M153.349,46.15c0-2.086,0-5.531,0-5.531h-1.414v3.307c-0.489-0.314-1.07-0.499-1.694-0.499
		c-1.734,0-3.14,1.407-3.14,3.141v0.951c0,1.733,1.405,3.138,3.14,3.138c1.736,0,3.141-1.404,3.141-3.138v-0.951
		C153.381,46.425,153.367,46.288,153.349,46.15z M151.505,48.997c-0.305,0.504-0.72,0.759-1.243,0.759
		c-0.315,0-0.583-0.075-0.799-0.229c-0.217-0.151-0.396-0.36-0.536-0.631c-0.143-0.266-0.248-0.569-0.311-0.912
		c-0.064-0.336-0.098-0.709-0.098-1.111c0-0.303,0.026-0.619,0.081-0.944c0.055-0.326,0.147-0.615,0.282-0.869
		c0.143-0.278,0.328-0.495,0.556-0.653c0.228-0.16,0.504-0.239,0.824-0.239c0.314,0,0.579,0.077,0.799,0.235
		c0.218,0.159,0.394,0.365,0.527,0.626c0.125,0.242,0.22,0.537,0.283,0.885c0.063,0.348,0.095,0.682,0.095,0.994
		C151.966,47.795,151.811,48.494,151.505,48.997z"/>
</g>
</svg>
